<svg id="HUMAN" xmlns="http://www.w3.org/2000/svg" viewBox="0 0 205.87 463.81"><defs><style>.cls-1{fill:#002d56;stroke:#2181bd;stroke-width:2px;}.cls-1,.cls-2{stroke-miterlimit:10;}.cls-2{fill:none;stroke:#fff;}</style></defs><title>brain_right</title><g id="Human-Brain"><path class="cls-1" d="M1,7V456c50,28,77-25,77-25,68,5,81-62,81-62,20-7,24-46,24-46,54-49-9-123-9-123C205,98,117,79,117,79,97-25,1,7,1,7" transform="translate(0 -1.36)"/></g><g id="HUMAN-Folds"><path class="cls-2" d="M108,186s12,21,0,38c0,0,9,19-6,30" transform="translate(0 -1.36)"/><path class="cls-2" d="M117,76s-36,20-9,32c0,0,14,25,5,50,0,0,36,29,23,52,0,0,2,38-18,49" transform="translate(0 -1.36)"/><path class="cls-2" d="M159,369s-44-4-36-32c0,0-10-11-5-21,0,0,0-50,41-59,0,0-1-57,15-57" transform="translate(0 -1.36)"/><path class="cls-2" d="M166,287s-26,19-21,34" transform="translate(0 -1.36)"/><path class="cls-2" d="M183,254s10,8,0,27" transform="translate(0 -1.36)"/><path class="cls-2" d="M145,348s23-7,21-22" transform="translate(0 -1.36)"/><path class="cls-2" d="M124,96s20,35,8,58" transform="translate(0 -1.36)"/><path class="cls-2" d="M160,130s16,32-4,56" transform="translate(0 -1.36)"/><path class="cls-2" d="M98,281s-13,40,0,56c0,0-19,25,0,37,0,0,9,25,32,18" transform="translate(0 -1.36)"/><path class="cls-2" d="M78,431s-23-12-23-68c0,0-22-16-14-47,0,0,7-47,42-52,0,0-13-29,0-69,0,0-11.11-55.43,1.39-83.64C87.94,103.33,64.81,75.75,68,63c7-28,21.51-39.53,21.51-39.53" transform="translate(0 -1.36)"/><path class="cls-2" d="M.5,49.43S38,43,35,76c0,0,17,22-4,54,0,0,14,15,1,46,0,0,5,36-31.5,34" transform="translate(0 -1.36)"/><path class="cls-2" d="M14,76s16,20,7,37" transform="translate(0 -1.36)"/><path class="cls-2" d="M14,144s14,18,0,37" transform="translate(0 -1.36)"/><path class="cls-2" d="M32,176s35-5,27,24c0,0,14,29-3,38,0,0-26,11-24,29,0,0-18,10-8,41,0,0,3,16,17,8" transform="translate(0 -1.36)"/><path class="cls-2" d="M98,118a54.94,54.94,0,0,1-3,29c-6,15,2,24,2,24" transform="translate(0 -1.36)"/><path class="cls-2" d="M35,76s21-9,23-33S73.29,11.42,73.29,11.42" transform="translate(0 -1.36)"/><path class="cls-2" d="M23.75,2.76S27,32,46,39s4.21,24.5,4.21,24.5" transform="translate(0 -1.36)"/><path class="cls-2" d="M14,27s3,13,18,17" transform="translate(0 -1.36)"/><path class="cls-2" d="M56,96s7,22,0,34c0,0,9,23,0,31" transform="translate(0 -1.36)"/><path class="cls-2" d="M43,210s-20,5-22,23c0,0-17,13-11,31" transform="translate(0 -1.36)"/><path class="cls-2" d="M24,332s-17,33-3,36,7,58,22,62" transform="translate(0 -1.36)"/><path class="cls-2" d="M73,363s-3,47,14,45c0,0,7,5,26,2" transform="translate(0 -1.36)"/><path class="cls-2" d="M77,280s-19,28-9,46" transform="translate(0 -1.36)"/><path class="cls-2" d="M96,49S84,63,90,84" transform="translate(0 -1.36)"/><path class="cls-2" d="M14,410s-8,33,7,37l4.86,17.16" transform="translate(0 -1.36)"/></g></svg>