<svg id="HUMAN" xmlns="http://www.w3.org/2000/svg" width="205.87" height="463.81" viewBox="0 0 205.87 463.81"><defs><style>.cls-1{fill:#002d56;stroke:#2181bd;stroke-width:2px;}.cls-1,.cls-2{stroke-miterlimit:10;}.cls-2{fill:none;stroke:#fff;}</style></defs><title>Artboard 1</title><g id="Human-Brain"><path class="cls-1" d="M1,5.64v449c50,28,77-25,77-25,68,5,81-62,81-62,20-7,24-46,24-46,54-49-9-123-9-123,31-102-57-121-57-121-20-104-116-72-116-72"/></g><g id="HUMAN-Folds"><path class="cls-2" d="M108,184.64s12,21,0,38c0,0,9,19-6,30"/><path class="cls-2" d="M117,74.64s-36,20-9,32c0,0,14,25,5,50,0,0,36,29,23,52,0,0,2,38-18,49"/><path class="cls-2" d="M159,367.64s-44-4-36-32c0,0-10-11-5-21,0,0,0-50,41-59,0,0-1-57,15-57"/><path class="cls-2" d="M166,285.64s-26,19-21,34"/><path class="cls-2" d="M183,252.64s10,8,0,27"/><path class="cls-2" d="M145,346.64s23-7,21-22"/><path class="cls-2" d="M124,94.64s20,35,8,58"/><path class="cls-2" d="M160,128.64s16,32-4,56"/><path class="cls-2" d="M98,279.64s-13,40,0,56c0,0-19,25,0,37,0,0,9,25,32,18"/><path class="cls-2" d="M78,429.64s-23-12-23-68c0,0-22-16-14-47,0,0,7-47,42-52,0,0-13-29,0-69,0,0-11.11-55.42,1.39-83.64C87.94,102,64.81,74.4,68,61.64c7-28,21.51-39.53,21.51-39.53"/><path class="cls-2" d="M.5,48.07S38,41.64,35,74.64c0,0,17,22-4,54,0,0,14,15,1,46,0,0,5,36-31.5,34"/><path class="cls-2" d="M14,74.64s16,20,7,37"/><path class="cls-2" d="M14,142.64s14,18,0,37"/><path class="cls-2" d="M32,174.64s35-5,27,24c0,0,14,29-3,38,0,0-26,11-24,29,0,0-18,10-8,41,0,0,3,16,17,8"/><path class="cls-2" d="M98,116.64a54.94,54.94,0,0,1-3,29c-6,15,2,24,2,24"/><path class="cls-2" d="M35,74.64s21-9,23-33S73.29,10.07,73.29,10.07"/><path class="cls-2" d="M23.75,1.41S27,30.64,46,37.64s4.21,24.5,4.21,24.5"/><path class="cls-2" d="M14,25.64s3,13,18,17"/><path class="cls-2" d="M56,94.64s7,22,0,34c0,0,9,23,0,31"/><path class="cls-2" d="M43,208.64s-20,5-22,23c0,0-17,13-11,31"/><path class="cls-2" d="M24,330.64s-17,33-3,36,7,58,22,62"/><path class="cls-2" d="M73,361.64s-3,47,14,45c0,0,7,5,26,2"/><path class="cls-2" d="M77,278.64s-19,28-9,46"/><path class="cls-2" d="M96,47.64s-12,14-6,35"/><path class="cls-2" d="M14,408.64s-8,33,7,37l4.86,17.17"/></g></svg>