<svg id="ROBOT" xmlns="http://www.w3.org/2000/svg" width="205.87" height="463.81" viewBox="0 0 205.87 463.81"><defs><style>.cls-1{fill:#2181bd;stroke-width:2px;}.cls-1,.cls-2{stroke:#002d56;}.cls-1,.cls-2,.cls-3{stroke-miterlimit:10;}.cls-2{fill:none;}.cls-3{fill:#002d56;stroke:#fff;stroke-width:3px;}</style></defs><title>Artboard 1</title><g id="ROBOT-BRAIN"><path class="cls-1" d="M204.87,5.64s-96-32-116,72c0,0-88,19-57,121,0,0-63,74-9,123,0,0,4,39,24,46,0,0,13,67,81,62,0,0,27,53,77,25V5.64"/></g><g id="ROBOT-FOLDS"><polyline class="cls-2" points="53.07 96.02 81.87 162.64 142.87 162.64"/><polyline class="cls-2" points="21.4 213.25 90.87 213.64 123.87 185.64"/><polyline class="cls-2" points="204.87 237.52 154.87 237.64 112.87 263.64"/><polyline class="cls-2" points="204.87 310.05 158.87 309.64 147.87 274.64"/><polyline class="cls-2" points="167.7 1.5 167.87 62.64 112.87 95.64"/><polyline class="cls-2" points="142.87 5.67 142.87 48.64 102.87 70.64"/><polyline class="cls-2" points="204.87 95.64 158.87 129.64 97.87 129.64"/><polyline class="cls-2" points="204.87 121.03 167.87 148.64 117.87 148.64"/><polyline class="cls-2" points="8.77 237.52 72.87 237.64 82.87 263.64"/><polyline class="cls-2" points="167.87 237.52 167.87 207.64 142.87 199.64"/><polyline class="cls-2" points="12.48 310.05 72.87 298.64 82.87 315.64"/><polyline class="cls-2" points="61.66 400.23 102.87 382.64 132.87 382.64"/><polyline class="cls-2" points="92.87 424.64 122.87 407.64 147.87 407.64"/><polyline class="cls-2" points="204.87 347.41 142.87 347.64 122.87 315.64"/><polyline class="cls-2" points="25.66 336.2 61.66 336.48 82.87 336.64 102.87 320.64"/><line class="cls-2" x1="72.87" y1="362.64" x2="61.87" y2="336.64"/><polyline class="cls-2" points="69.85 134.84 45.87 167.64 72.87 185.64"/><line class="cls-2" x1="102.94" y1="203.41" x2="123.87" y2="223.64"/><line class="cls-2" x1="151.37" y1="285.78" x2="117.87" y2="285.64"/><line class="cls-2" x1="53.07" y1="302.38" x2="52.87" y2="274.64"/><polyline class="cls-2" points="1 268.29 34.87 268.64 52.87 256.64"/><polyline class="cls-2" points="204.87 38.16 180.87 38.64 167.87 62.64"/><polyline class="cls-2" points="147.87 74.64 154.87 102.64 180.87 95.64"/><polyline class="cls-2" points="72.64 83.56 82.87 120.64 117.87 112.64"/><polyline class="cls-2" points="204.87 400.23 167.87 400.64 154.87 373.64"/><polyline class="cls-2" points="113.4 382.64 113.87 362.64 132.87 354.64"/><polyline class="cls-2" points="167.87 462.81 163.87 431.64 180.87 421.64"/><polyline class="cls-2" points="147.87 452.83 142.87 429.64 167.87 414.64"/><polyline class="cls-2" points="204.87 175.98 171.87 175.64 154.87 185.64"/><polyline class="cls-2" points="204.87 160.24 177.87 160.64 157.87 170.64"/><polyline class="cls-2" points="167.87 218.14 186.87 218.64 204.87 199.64"/><polyline class="cls-2" points="204.87 268.64 171.87 268.64 154.87 237.64"/><polyline class="cls-2" points="204.87 387.14 176.87 387.64 169.87 362.64"/></g><g id="ROBOT-SYNAPSE"><circle class="cls-3" cx="123.87" cy="185.64" r="5"/><circle class="cls-3" cx="123.87" cy="223.64" r="5"/><circle class="cls-3" cx="142.87" cy="199.64" r="5"/><circle class="cls-3" cx="72.87" cy="185.64" r="5"/><circle class="cls-3" cx="142.87" cy="162.64" r="5"/><circle class="cls-3" cx="117.87" cy="148.64" r="5"/><circle class="cls-3" cx="97.87" cy="129.64" r="5"/><circle class="cls-3" cx="112.87" cy="263.64" r="5"/><circle class="cls-3" cx="147.87" cy="274.64" r="5"/><circle class="cls-3" cx="117.87" cy="285.64" r="5"/><circle class="cls-3" cx="82.87" cy="263.64" r="5"/><circle class="cls-3" cx="52.87" cy="256.64" r="5"/><circle class="cls-3" cx="52.87" cy="274.64" r="5"/><circle class="cls-3" cx="82.87" cy="315.64" r="5"/><circle class="cls-3" cx="102.87" cy="320.64" r="5"/><circle class="cls-3" cx="122.87" cy="315.64" r="5"/><circle class="cls-3" cx="72.87" cy="362.64" r="5"/><circle class="cls-3" cx="132.87" cy="354.64" r="5"/><circle class="cls-3" cx="132.87" cy="382.64" r="5"/><circle class="cls-3" cx="154.87" cy="373.64" r="5"/><circle class="cls-3" cx="169.87" cy="362.64" r="5"/><circle class="cls-3" cx="147.87" cy="407.64" r="5"/><circle class="cls-3" cx="167.87" cy="414.64" r="5"/><circle class="cls-3" cx="180.87" cy="421.64" r="5"/><circle class="cls-3" cx="154.87" cy="185.64" r="5"/><circle class="cls-3" cx="157.87" cy="170.64" r="5"/><circle class="cls-3" cx="117.87" cy="112.64" r="5"/><circle class="cls-3" cx="180.87" cy="95.64" r="5"/><circle class="cls-3" cx="112.87" cy="95.64" r="5"/><circle class="cls-3" cx="102.87" cy="70.64" r="5"/><circle class="cls-3" cx="179.87" cy="39.64" r="5"/><circle class="cls-3" cx="187.87" cy="218.64" r="5"/><circle class="cls-3" cx="172.87" cy="268.64" r="5"/></g></svg>