<svg xmlns="http://www.w3.org/2000/svg" viewBox="0 0 409.24 464.31"><defs><style>.cls-1,.cls-5{fill:#002d56;}.cls-1{stroke:#2181bd;}.cls-1,.cls-2,.cls-3,.cls-4,.cls-5{stroke-miterlimit:10;}.cls-1,.cls-3{stroke-width:2px;}.cls-2,.cls-4{fill:none;}.cls-2,.cls-5{stroke:#fff;}.cls-3{fill:#2181bd;}.cls-3,.cls-4{stroke:#002d56;}.cls-5{stroke-width:3px;}</style></defs><title>Asset 1</title><g id="Layer_2" data-name="Layer 2"><g id="HUMAN"><g id="Human-Brain"><path class="cls-1" d="M204.37,6.14v449c50,28,77-25,77-25,68,5,81-62,81-62,20-7,24-46,24-46,54-49-9-123-9-123,31-102-57-121-57-121-20-104-116-72-116-72"/></g><g id="HUMAN-Folds"><path class="cls-2" d="M311.37,185.14s12,21,0,38c0,0,9,19-6,30"/><path class="cls-2" d="M320.37,75.14s-36,20-9,32c0,0,14,25,5,50,0,0,36,29,23,52,0,0,2,38-18,49"/><path class="cls-2" d="M362.37,368.14s-44-4-36-32c0,0-10-11-5-21,0,0,0-50,41-59,0,0-1-57,15-57"/><path class="cls-2" d="M369.37,286.14s-26,19-21,34"/><path class="cls-2" d="M386.37,253.14s10,8,0,27"/><path class="cls-2" d="M348.37,347.14s23-7,21-22"/><path class="cls-2" d="M327.37,95.14s20,35,8,58"/><path class="cls-2" d="M363.37,129.14s16,32-4,56"/><path class="cls-2" d="M301.37,280.14s-13,40,0,56c0,0-19,25,0,37,0,0,9,25,32,18"/><path class="cls-2" d="M281.37,430.14s-23-12-23-68c0,0-22-16-14-47,0,0,7-47,42-52,0,0-13-29,0-69,0,0-11.11-55.42,1.39-83.64,3.55-8-19.58-35.6-16.39-48.36,7-28,21.51-39.53,21.51-39.53"/><path class="cls-2" d="M203.87,48.57s37.5-6.43,34.5,26.57c0,0,17,22-4,54,0,0,14,15,1,46,0,0,5,36-31.5,34"/><path class="cls-2" d="M217.37,75.14s16,20,7,37"/><path class="cls-2" d="M217.37,143.14s14,18,0,37"/><path class="cls-2" d="M235.37,175.14s35-5,27,24c0,0,14,29-3,38,0,0-26,11-24,29,0,0-18,10-8,41,0,0,3,16,17,8"/><path class="cls-2" d="M301.37,117.14a54.94,54.94,0,0,1-3,29c-6,15,2,24,2,24"/><path class="cls-2" d="M238.37,75.14s21-9,23-33,15.29-31.57,15.29-31.57"/><path class="cls-2" d="M227.12,1.91s3.25,29.23,22.25,36.23,4.21,24.5,4.21,24.5"/><path class="cls-2" d="M217.37,26.14s3,13,18,17"/><path class="cls-2" d="M259.37,95.14s7,22,0,34c0,0,9,23,0,31"/><path class="cls-2" d="M246.37,209.14s-20,5-22,23c0,0-17,13-11,31"/><path class="cls-2" d="M227.37,331.14s-17,33-3,36,7,58,22,62"/><path class="cls-2" d="M276.37,362.14s-3,47,14,45c0,0,7,5,26,2"/><path class="cls-2" d="M280.37,279.14s-19,28-9,46"/><path class="cls-2" d="M299.37,48.14s-12,14-6,35"/><path class="cls-2" d="M217.37,409.14s-8,33,7,37l4.86,17.17"/></g></g><g id="ROBOT"><g id="ROBOT-BRAIN"><path class="cls-3" d="M204.87,5.64s-96-32-116,72c0,0-88,19-57,121,0,0-63,74-9,123,0,0,4,39,24,46,0,0,13,67,81,62,0,0,27,53,77,25V5.64"/></g><g id="ROBOT-FOLDS"><polyline class="cls-4" points="53.07 96.02 81.87 162.64 142.87 162.64"/><polyline class="cls-4" points="21.4 213.25 90.87 213.64 123.87 185.64"/><polyline class="cls-4" points="204.87 237.52 154.87 237.64 112.87 263.64"/><polyline class="cls-4" points="204.87 310.05 158.87 309.64 147.87 274.64"/><polyline class="cls-4" points="167.7 1.5 167.87 62.64 112.87 95.64"/><polyline class="cls-4" points="142.87 5.67 142.87 48.64 102.87 70.64"/><polyline class="cls-4" points="204.87 95.64 158.87 129.64 97.87 129.64"/><polyline class="cls-4" points="204.87 121.03 167.87 148.64 117.87 148.64"/><polyline class="cls-4" points="8.77 237.52 72.87 237.64 82.87 263.64"/><polyline class="cls-4" points="167.87 237.52 167.87 207.64 142.87 199.64"/><polyline class="cls-4" points="12.48 310.05 72.87 298.64 82.87 315.64"/><polyline class="cls-4" points="61.66 400.23 102.87 382.64 132.87 382.64"/><polyline class="cls-4" points="92.87 424.64 122.87 407.64 147.87 407.64"/><polyline class="cls-4" points="204.87 347.41 142.87 347.64 122.87 315.64"/><polyline class="cls-4" points="25.66 336.2 61.66 336.48 82.87 336.64 102.87 320.64"/><line class="cls-4" x1="72.87" y1="362.64" x2="61.87" y2="336.64"/><polyline class="cls-4" points="69.85 134.84 45.87 167.64 72.87 185.64"/><line class="cls-4" x1="102.94" y1="203.41" x2="123.87" y2="223.64"/><line class="cls-4" x1="151.37" y1="285.78" x2="117.87" y2="285.64"/><line class="cls-4" x1="53.07" y1="302.38" x2="52.87" y2="274.64"/><polyline class="cls-4" points="1 268.29 34.87 268.64 52.87 256.64"/><polyline class="cls-4" points="204.87 38.16 180.87 38.64 167.87 62.64"/><polyline class="cls-4" points="147.87 74.64 154.87 102.64 180.87 95.64"/><polyline class="cls-4" points="72.64 83.56 82.87 120.64 117.87 112.64"/><polyline class="cls-4" points="204.87 400.23 167.87 400.64 154.87 373.64"/><polyline class="cls-4" points="113.4 382.64 113.87 362.64 132.87 354.64"/><polyline class="cls-4" points="167.87 462.81 163.87 431.64 180.87 421.64"/><polyline class="cls-4" points="147.87 452.83 142.87 429.64 167.87 414.64"/><polyline class="cls-4" points="204.87 175.98 171.87 175.64 154.87 185.64"/><polyline class="cls-4" points="204.87 160.24 177.87 160.64 157.87 170.64"/><polyline class="cls-4" points="167.87 218.14 186.87 218.64 204.87 199.64"/><polyline class="cls-4" points="204.87 268.64 171.87 268.64 154.87 237.64"/><polyline class="cls-4" points="204.87 387.14 176.87 387.64 169.87 362.64"/></g><g id="ROBOT-SYNAPSE"><circle class="cls-5" cx="123.87" cy="185.64" r="5"/><circle class="cls-5" cx="123.87" cy="223.64" r="5"/><circle class="cls-5" cx="142.87" cy="199.64" r="5"/><circle class="cls-5" cx="72.87" cy="185.64" r="5"/><circle class="cls-5" cx="142.87" cy="162.64" r="5"/><circle class="cls-5" cx="117.87" cy="148.64" r="5"/><circle class="cls-5" cx="97.87" cy="129.64" r="5"/><circle class="cls-5" cx="112.87" cy="263.64" r="5"/><circle class="cls-5" cx="147.87" cy="274.64" r="5"/><circle class="cls-5" cx="117.87" cy="285.64" r="5"/><circle class="cls-5" cx="82.87" cy="263.64" r="5"/><circle class="cls-5" cx="52.87" cy="256.64" r="5"/><circle class="cls-5" cx="52.87" cy="274.64" r="5"/><circle class="cls-5" cx="82.87" cy="315.64" r="5"/><circle class="cls-5" cx="102.87" cy="320.64" r="5"/><circle class="cls-5" cx="122.87" cy="315.64" r="5"/><circle class="cls-5" cx="72.87" cy="362.64" r="5"/><circle class="cls-5" cx="132.87" cy="354.64" r="5"/><circle class="cls-5" cx="132.87" cy="382.64" r="5"/><circle class="cls-5" cx="154.87" cy="373.64" r="5"/><circle class="cls-5" cx="169.87" cy="362.64" r="5"/><circle class="cls-5" cx="147.87" cy="407.64" r="5"/><circle class="cls-5" cx="167.87" cy="414.64" r="5"/><circle class="cls-5" cx="180.87" cy="421.64" r="5"/><circle class="cls-5" cx="154.87" cy="185.64" r="5"/><circle class="cls-5" cx="157.87" cy="170.64" r="5"/><circle class="cls-5" cx="117.87" cy="112.64" r="5"/><circle class="cls-5" cx="180.87" cy="95.64" r="5"/><circle class="cls-5" cx="112.87" cy="95.64" r="5"/><circle class="cls-5" cx="102.87" cy="70.64" r="5"/><circle class="cls-5" cx="179.87" cy="39.64" r="5"/><circle class="cls-5" cx="187.87" cy="218.64" r="5"/><circle class="cls-5" cx="172.87" cy="268.64" r="5"/></g></g></g></svg>