<?xml version="1.0" encoding="UTF-8"?>
<svg width="157px" height="83px" viewBox="0 0 157 83" version="1.1" xmlns="http://www.w3.org/2000/svg" xmlns:xlink="http://www.w3.org/1999/xlink">
    <!-- Generator: Sketch 50.2 (55047) - http://www.bohemiancoding.com/sketch -->
    <title>Letters</title>
    <desc>Created with Sketch.</desc>
    <defs>
        <filter x="-9.3%" y="-22.0%" width="126.1%" height="153.0%" filterUnits="objectBoundingBox" id="filter-1">
            <feOffset dx="5" dy="3" in="SourceAlpha" result="shadowOffsetOuter1"></feOffset>
            <feGaussianBlur stdDeviation="4" in="shadowOffsetOuter1" result="shadowBlurOuter1"></feGaussianBlur>
            <feColorMatrix values="0 0 0 0 0   0 0 0 0 0   0 0 0 0 0  0 0 0 0.5 0" type="matrix" in="shadowBlurOuter1" result="shadowMatrixOuter1"></feColorMatrix>
            <feMerge>
                <feMergeNode in="shadowMatrixOuter1"></feMergeNode>
                <feMergeNode in="SourceGraphic"></feMergeNode>
            </feMerge>
        </filter>
    </defs>
    <g id="Page-1" stroke="none" stroke-width="1" fill="none" fill-rule="evenodd">
        <g id="Desktop-HD-Copy" transform="translate(-644.000000, 0.000000)" fill="#FFFFFF" stroke="#2181bd" stroke-width="5">
            <g id="Nav" transform="translate(-6.000000, 0.000000)">
                <g id="Letters" filter="url(#filter-1)" transform="translate(656.000000, 3.000000)">
                    <polygon id="K" points="107.785235 0 133.530201 0 110.322148 27.1482558 134 66 109.47651 66 96.0402685 41.8255814 84.7651007 51.2267442 84.7651007 66 64 66 64 0 84.7651007 0 84.7651007 28.2034884"></polygon>
                    <polygon id="H" points="43.3518248 66 43.3518248 40.9622093 20.6481752 40.9622093 20.6481752 66 0 66 0 0 20.6481752 0 20.6481752 24.0784884 43.3518248 24.0784884 43.3518248 0 64 0 64 66"></polygon>
                </g>
            </g>
        </g>
    </g>
</svg>